<mxfile host="app.diagrams.net" agent="Mozilla/5.0 (X11; Linux x86_64; rv:135.0) Gecko/20100101 Firefox/135.0" version="26.0.14">
  <diagram name="Architecture" id="1Hr61G1TTQ4BNQoCgUvx">
    <mxGraphModel dx="5528" dy="3220" grid="1" gridSize="10" guides="1" tooltips="1" connect="1" arrows="1" fold="1" page="1" pageScale="1" pageWidth="850" pageHeight="1100" math="0" shadow="0">
      <root>
        <mxCell id="0" />
        <mxCell id="1" parent="0" />
        <mxCell id="Acg6w6ZLD4bJByQPUH88-157" value="" style="rounded=1;whiteSpace=wrap;html=1;fillColor=#dae8fc;strokeColor=#6c8ebf;rotation=90;" vertex="1" parent="1">
          <mxGeometry x="-1530.0026845637583" y="689.9977777777779" width="819.4426845637583" height="319.44444444444446" as="geometry" />
        </mxCell>
        <mxCell id="v-dcrOAvUfmWSFPV6nOm-117" value="" style="rounded=0;whiteSpace=wrap;html=1;fillColor=#b0e3e6;strokeColor=#0e8088;" parent="1" vertex="1">
          <mxGeometry x="580" y="640" width="660" height="590" as="geometry" />
        </mxCell>
        <mxCell id="v-dcrOAvUfmWSFPV6nOm-55" value="" style="rounded=0;whiteSpace=wrap;html=1;fillColor=#dae8fc;strokeColor=#6c8ebf;" parent="1" vertex="1">
          <mxGeometry x="-860" y="640" width="660" height="590" as="geometry" />
        </mxCell>
        <mxCell id="v-dcrOAvUfmWSFPV6nOm-40" value="" style="rounded=0;whiteSpace=wrap;html=1;align=left;verticalAlign=top;fontStyle=1;spacingLeft=5;fillColor=#d5e8d4;strokeColor=#82b366;" parent="1" vertex="1">
          <mxGeometry x="-840" y="790" width="620" height="420" as="geometry" />
        </mxCell>
        <mxCell id="v-dcrOAvUfmWSFPV6nOm-119" value="&amp;nbsp;" style="rounded=0;whiteSpace=wrap;html=1;align=left;verticalAlign=top;fontStyle=1;spacingLeft=5;fillColor=#d5e8d4;strokeColor=#82b366;" parent="1" vertex="1">
          <mxGeometry x="601.04" y="791" width="618.96" height="420" as="geometry" />
        </mxCell>
        <mxCell id="v-dcrOAvUfmWSFPV6nOm-73" value="&amp;nbsp;" style="rounded=0;whiteSpace=wrap;html=1;fillColor=#e1d5e7;strokeColor=#9673a6;" parent="1" vertex="1">
          <mxGeometry x="-145" y="640" width="660" height="590" as="geometry" />
        </mxCell>
        <mxCell id="v-dcrOAvUfmWSFPV6nOm-75" value="" style="rounded=0;whiteSpace=wrap;html=1;align=left;verticalAlign=top;fontStyle=1;spacingLeft=5;fillColor=#d5e8d4;strokeColor=#82b366;" parent="1" vertex="1">
          <mxGeometry x="-125" y="791" width="620" height="419" as="geometry" />
        </mxCell>
        <mxCell id="v-dcrOAvUfmWSFPV6nOm-19" value="My Machine" style="rounded=1;whiteSpace=wrap;html=1;fillColor=#ffe6cc;strokeColor=#d79b00;fontStyle=1;align=center;verticalAlign=bottom;spacingLeft=-6;container=0;labelPosition=center;verticalLabelPosition=top;" parent="1" vertex="1">
          <mxGeometry x="422" y="380" width="146.04" height="128.05" as="geometry" />
        </mxCell>
        <mxCell id="Acg6w6ZLD4bJByQPUH88-40" value="" style="rounded=1;whiteSpace=wrap;html=1;" vertex="1" parent="1">
          <mxGeometry x="370" y="411.09999999999997" width="120" height="71.96" as="geometry" />
        </mxCell>
        <mxCell id="Acg6w6ZLD4bJByQPUH88-39" value="" style="rounded=1;whiteSpace=wrap;html=1;" vertex="1" parent="1">
          <mxGeometry x="835" y="608.04" width="120" height="71.96" as="geometry" />
        </mxCell>
        <mxCell id="Acg6w6ZLD4bJByQPUH88-38" value="" style="rounded=1;whiteSpace=wrap;html=1;" vertex="1" parent="1">
          <mxGeometry x="125" y="608.04" width="120" height="71.96" as="geometry" />
        </mxCell>
        <mxCell id="Acg6w6ZLD4bJByQPUH88-37" value="" style="rounded=1;whiteSpace=wrap;html=1;" vertex="1" parent="1">
          <mxGeometry x="-590" y="608.04" width="120" height="71.96" as="geometry" />
        </mxCell>
        <mxCell id="v-dcrOAvUfmWSFPV6nOm-5" style="edgeStyle=orthogonalEdgeStyle;rounded=0;orthogonalLoop=1;jettySize=auto;html=1;entryX=0.25;entryY=0;entryDx=0;entryDy=0;exitX=1;exitY=0.5;exitDx=0;exitDy=0;endArrow=none;startFill=0;" parent="1" source="v-dcrOAvUfmWSFPV6nOm-1" target="v-dcrOAvUfmWSFPV6nOm-7" edge="1">
          <mxGeometry relative="1" as="geometry">
            <mxPoint x="190" y="340" as="targetPoint" />
            <Array as="points">
              <mxPoint x="118" y="296" />
              <mxPoint x="118" y="380" />
            </Array>
          </mxGeometry>
        </mxCell>
        <mxCell id="v-dcrOAvUfmWSFPV6nOm-1" value="ISP" style="shape=image;imageAspect=0;aspect=fixed;verticalLabelPosition=bottom;verticalAlign=top;image=https://encrypted-tbn0.gstatic.com/images?q=tbn:ANd9GcSy0GTdbg7jLKrSXAx6nHsGWe_s1SHSmejMjw&amp;s;clipPath=inset(27.78% 11.33% 27.78% 6%);fontStyle=1;perimeterSpacing=0;" parent="1" vertex="1">
          <mxGeometry x="-79.39999999999998" y="270" width="94.8" height="50.97" as="geometry" />
        </mxCell>
        <mxCell id="v-dcrOAvUfmWSFPV6nOm-15" style="edgeStyle=orthogonalEdgeStyle;rounded=0;orthogonalLoop=1;jettySize=auto;html=1;entryX=0.057;entryY=0.526;entryDx=0;entryDy=0;entryPerimeter=0;endArrow=none;startFill=0;" parent="1" source="v-dcrOAvUfmWSFPV6nOm-7" target="v-dcrOAvUfmWSFPV6nOm-14" edge="1">
          <mxGeometry relative="1" as="geometry" />
        </mxCell>
        <mxCell id="v-dcrOAvUfmWSFPV6nOm-27" value="" style="group" parent="1" vertex="1" connectable="0">
          <mxGeometry x="50" y="380" width="270" height="130" as="geometry" />
        </mxCell>
        <mxCell id="v-dcrOAvUfmWSFPV6nOm-7" value="Router (ISP)" style="rounded=0;whiteSpace=wrap;html=1;fillColor=#FFF2CC;strokeColor=#d6b656;fontStyle=1;align=left;verticalAlign=top;spacingLeft=5;" parent="v-dcrOAvUfmWSFPV6nOm-27" vertex="1">
          <mxGeometry width="270" height="130" as="geometry" />
        </mxCell>
        <mxCell id="v-dcrOAvUfmWSFPV6nOm-4" value="Public IP: 255.255.255.255" style="shape=image;imageAspect=0;aspect=fixed;verticalLabelPosition=bottom;verticalAlign=top;image=https://www.hyperoptic.com/wp-content/uploads/2024/07/router-PR-pic.jpg;clipPath=inset(16.08% 21.67% 2.63% 19%);fontStyle=1;fontColor=#FF3399;" parent="v-dcrOAvUfmWSFPV6nOm-27" vertex="1">
          <mxGeometry x="90" y="30" width="84.6" height="66.07" as="geometry" />
        </mxCell>
        <mxCell id="v-dcrOAvUfmWSFPV6nOm-39" style="edgeStyle=orthogonalEdgeStyle;rounded=0;orthogonalLoop=1;jettySize=auto;html=1;entryX=1;entryY=0.5;entryDx=0;entryDy=0;endArrow=none;startFill=0;" parent="1" source="v-dcrOAvUfmWSFPV6nOm-37" target="v-dcrOAvUfmWSFPV6nOm-34" edge="1">
          <mxGeometry relative="1" as="geometry">
            <Array as="points">
              <mxPoint x="-800" y="445" />
              <mxPoint x="-800" y="568" />
            </Array>
          </mxGeometry>
        </mxCell>
        <mxCell id="v-dcrOAvUfmWSFPV6nOm-37" value="" style="image;aspect=fixed;html=1;points=[];align=center;fontSize=12;image=img/lib/azure2/networking/DNS_Zones.svg;" parent="1" vertex="1">
          <mxGeometry x="-64" y="413" width="64" height="64" as="geometry" />
        </mxCell>
        <mxCell id="v-dcrOAvUfmWSFPV6nOm-38" style="edgeStyle=orthogonalEdgeStyle;rounded=0;orthogonalLoop=1;jettySize=auto;html=1;endArrow=none;startFill=0;" parent="1" source="v-dcrOAvUfmWSFPV6nOm-7" target="v-dcrOAvUfmWSFPV6nOm-37" edge="1">
          <mxGeometry relative="1" as="geometry" />
        </mxCell>
        <mxCell id="v-dcrOAvUfmWSFPV6nOm-71" value="" style="group;strokeColor=#4D4D4D;strokeWidth=2;" parent="1" vertex="1" connectable="0">
          <mxGeometry x="-755" y="694" width="460" height="80" as="geometry" />
        </mxCell>
        <mxCell id="v-dcrOAvUfmWSFPV6nOm-70" value="" style="rounded=0;whiteSpace=wrap;html=1;strokeColor=none;" parent="v-dcrOAvUfmWSFPV6nOm-71" vertex="1">
          <mxGeometry width="460" height="80" as="geometry" />
        </mxCell>
        <mxCell id="v-dcrOAvUfmWSFPV6nOm-50" value="" style="group" parent="v-dcrOAvUfmWSFPV6nOm-71" vertex="1" connectable="0">
          <mxGeometry x="10" y="20" width="41.74" height="40" as="geometry" />
        </mxCell>
        <mxCell id="v-dcrOAvUfmWSFPV6nOm-49" value="" style="ellipse;whiteSpace=wrap;html=1;strokeColor=none;" parent="v-dcrOAvUfmWSFPV6nOm-50" vertex="1">
          <mxGeometry width="41.74" height="40" as="geometry" />
        </mxCell>
        <mxCell id="v-dcrOAvUfmWSFPV6nOm-48" value="" style="shape=image;imageAspect=0;aspect=fixed;verticalLabelPosition=bottom;verticalAlign=top;image=https://upload.wikimedia.org/wikipedia/commons/thumb/a/ad/HP_logo_2012.svg/640px-HP_logo_2012.svg.png;" parent="v-dcrOAvUfmWSFPV6nOm-50" vertex="1">
          <mxGeometry width="40" height="40" as="geometry" />
        </mxCell>
        <mxCell id="v-dcrOAvUfmWSFPV6nOm-45" value="HP ProDesk 600 G3" style="shape=image;imageAspect=0;aspect=fixed;verticalLabelPosition=top;verticalAlign=bottom;image=https://cdn.cs.1worldsync.com/d0/1b/d01bff7c-0667-4a05-bf1a-10f1d6851b6b.jpg;clipPath=inset(26.44% 2.67% 29.11% 2%);fontStyle=1;labelPosition=center;align=center;" parent="v-dcrOAvUfmWSFPV6nOm-71" vertex="1">
          <mxGeometry x="60.00173913043483" y="21.000000000000114" width="148.2" height="51.82" as="geometry" />
        </mxCell>
        <mxCell id="v-dcrOAvUfmWSFPV6nOm-62" value="Intel Core i5-6500T @ 4x 3.1GHz" style="sketch=0;pointerEvents=1;shadow=0;dashed=0;html=1;strokeColor=none;fillColor=#434445;aspect=fixed;labelPosition=right;verticalLabelPosition=middle;verticalAlign=middle;align=left;outlineConnect=0;shape=mxgraph.vvd.cpu;fontStyle=1;spacingLeft=6;" parent="v-dcrOAvUfmWSFPV6nOm-71" vertex="1">
          <mxGeometry x="219.99739130434787" y="5.01" width="27.5" height="27.5" as="geometry" />
        </mxCell>
        <mxCell id="v-dcrOAvUfmWSFPV6nOm-59" value="&lt;span&gt;500GB SSD&lt;/span&gt;" style="image;aspect=fixed;html=1;points=[];align=left;fontSize=12;image=img/lib/azure2/general/SSD.svg;fontStyle=1;labelPosition=right;verticalLabelPosition=middle;verticalAlign=middle;spacingLeft=6;labelBackgroundColor=none;" parent="v-dcrOAvUfmWSFPV6nOm-71" vertex="1">
          <mxGeometry x="221.82347826086962" y="45.01" width="24" height="21.81" as="geometry" />
        </mxCell>
        <mxCell id="v-dcrOAvUfmWSFPV6nOm-60" value="16GB DDR4" style="sketch=0;pointerEvents=1;shadow=0;dashed=0;html=1;strokeColor=none;fillColor=#005F4B;labelPosition=right;verticalLabelPosition=middle;verticalAlign=middle;align=left;outlineConnect=0;shape=mxgraph.veeam2.ram;fontStyle=1;spacingLeft=6;" parent="v-dcrOAvUfmWSFPV6nOm-71" vertex="1">
          <mxGeometry x="329.13000000000005" y="46.96000000000004" width="41.73913043478261" height="17.91" as="geometry" />
        </mxCell>
        <mxCell id="v-dcrOAvUfmWSFPV6nOm-93" style="edgeStyle=orthogonalEdgeStyle;rounded=0;orthogonalLoop=1;jettySize=auto;html=1;entryX=0.499;entryY=0.17;entryDx=0;entryDy=0;endArrow=none;startFill=0;exitX=0.5;exitY=1;exitDx=0;exitDy=0;entryPerimeter=0;" parent="1" source="v-dcrOAvUfmWSFPV6nOm-7" target="v-dcrOAvUfmWSFPV6nOm-95" edge="1">
          <mxGeometry relative="1" as="geometry">
            <Array as="points">
              <mxPoint x="185" y="570" />
              <mxPoint x="-530" y="570" />
            </Array>
          </mxGeometry>
        </mxCell>
        <mxCell id="v-dcrOAvUfmWSFPV6nOm-94" style="edgeStyle=orthogonalEdgeStyle;rounded=0;orthogonalLoop=1;jettySize=auto;html=1;entryX=0.495;entryY=0.132;entryDx=0;entryDy=0;endArrow=none;startFill=0;entryPerimeter=0;exitX=0.5;exitY=1;exitDx=0;exitDy=0;" parent="1" source="v-dcrOAvUfmWSFPV6nOm-7" target="v-dcrOAvUfmWSFPV6nOm-96" edge="1">
          <mxGeometry relative="1" as="geometry">
            <Array as="points">
              <mxPoint x="185" y="560" />
              <mxPoint x="185" y="560" />
            </Array>
          </mxGeometry>
        </mxCell>
        <mxCell id="v-dcrOAvUfmWSFPV6nOm-95" value="192.168.1.158" style="html=1;strokeWidth=1;shadow=0;dashed=0;shape=mxgraph.ios7.misc.wifi;fillColor=#007AFF;strokeColor=none;buttonText=;strokeColor2=#222222;fontColor=#0000FF;fontSize=12;verticalLabelPosition=bottom;verticalAlign=top;align=center;sketch=0;perimeterSpacing=12;container=0;fontStyle=1" parent="1" vertex="1">
          <mxGeometry x="-547.5" y="620" width="35" height="36.07" as="geometry" />
        </mxCell>
        <mxCell id="v-dcrOAvUfmWSFPV6nOm-96" value="&lt;div&gt;192.168.1.146&lt;/div&gt;" style="html=1;strokeWidth=1;shadow=0;dashed=0;shape=mxgraph.ios7.misc.wifi;fillColor=#007AFF;strokeColor=none;buttonText=;strokeColor2=#222222;fontColor=#0000FF;fontSize=12;verticalLabelPosition=bottom;verticalAlign=top;align=center;sketch=0;perimeterSpacing=9;container=0;fontStyle=1" parent="1" vertex="1">
          <mxGeometry x="167.5" y="620" width="35" height="36.07" as="geometry" />
        </mxCell>
        <mxCell id="v-dcrOAvUfmWSFPV6nOm-130" value="192.168.1.XXX" style="html=1;strokeWidth=1;shadow=0;dashed=0;shape=mxgraph.ios7.misc.wifi;fillColor=#007AFF;strokeColor=none;buttonText=;strokeColor2=#222222;fontColor=#0000FF;fontSize=12;verticalLabelPosition=bottom;verticalAlign=top;align=center;sketch=0;perimeterSpacing=5;container=0;fontStyle=1" parent="1" vertex="1">
          <mxGeometry x="877.5" y="620" width="35" height="36.07" as="geometry" />
        </mxCell>
        <mxCell id="v-dcrOAvUfmWSFPV6nOm-131" style="edgeStyle=orthogonalEdgeStyle;rounded=0;orthogonalLoop=1;jettySize=auto;html=1;entryX=0.488;entryY=0.068;entryDx=0;entryDy=0;entryPerimeter=0;exitX=0.5;exitY=1;exitDx=0;exitDy=0;endArrow=none;startFill=0;" parent="1" source="v-dcrOAvUfmWSFPV6nOm-7" target="v-dcrOAvUfmWSFPV6nOm-130" edge="1">
          <mxGeometry relative="1" as="geometry">
            <Array as="points">
              <mxPoint x="185" y="570" />
              <mxPoint x="895" y="570" />
              <mxPoint x="895" y="619" />
            </Array>
          </mxGeometry>
        </mxCell>
        <mxCell id="Acg6w6ZLD4bJByQPUH88-5" value="" style="group;strokeColor=#4D4D4D;strokeWidth=2;" vertex="1" connectable="0" parent="1">
          <mxGeometry x="-40" y="694" width="460" height="80" as="geometry" />
        </mxCell>
        <mxCell id="Acg6w6ZLD4bJByQPUH88-6" value="" style="rounded=0;whiteSpace=wrap;html=1;strokeColor=none;" vertex="1" parent="Acg6w6ZLD4bJByQPUH88-5">
          <mxGeometry width="460" height="80" as="geometry" />
        </mxCell>
        <mxCell id="Acg6w6ZLD4bJByQPUH88-7" value="" style="group" vertex="1" connectable="0" parent="Acg6w6ZLD4bJByQPUH88-5">
          <mxGeometry x="10" y="20" width="41.74" height="40" as="geometry" />
        </mxCell>
        <mxCell id="Acg6w6ZLD4bJByQPUH88-8" value="" style="ellipse;whiteSpace=wrap;html=1;strokeColor=none;" vertex="1" parent="Acg6w6ZLD4bJByQPUH88-7">
          <mxGeometry width="41.74" height="40" as="geometry" />
        </mxCell>
        <mxCell id="Acg6w6ZLD4bJByQPUH88-9" value="" style="shape=image;imageAspect=0;aspect=fixed;verticalLabelPosition=bottom;verticalAlign=top;image=https://upload.wikimedia.org/wikipedia/commons/thumb/a/ad/HP_logo_2012.svg/640px-HP_logo_2012.svg.png;" vertex="1" parent="Acg6w6ZLD4bJByQPUH88-7">
          <mxGeometry width="40" height="40" as="geometry" />
        </mxCell>
        <mxCell id="Acg6w6ZLD4bJByQPUH88-10" value="HP ProDesk 600 G3" style="shape=image;imageAspect=0;aspect=fixed;verticalLabelPosition=top;verticalAlign=bottom;image=https://cdn.cs.1worldsync.com/d0/1b/d01bff7c-0667-4a05-bf1a-10f1d6851b6b.jpg;clipPath=inset(26.44% 2.67% 29.11% 2%);fontStyle=1;labelPosition=center;align=center;" vertex="1" parent="Acg6w6ZLD4bJByQPUH88-5">
          <mxGeometry x="60.00173913043483" y="21.000000000000114" width="148.2" height="51.82" as="geometry" />
        </mxCell>
        <mxCell id="Acg6w6ZLD4bJByQPUH88-11" value="&lt;div&gt;Intel Core i3-6100T @ 4x 3.2GHz&lt;/div&gt;" style="sketch=0;pointerEvents=1;shadow=0;dashed=0;html=1;strokeColor=none;fillColor=#434445;aspect=fixed;labelPosition=right;verticalLabelPosition=middle;verticalAlign=middle;align=left;outlineConnect=0;shape=mxgraph.vvd.cpu;fontStyle=1;spacingLeft=6;" vertex="1" parent="Acg6w6ZLD4bJByQPUH88-5">
          <mxGeometry x="219.99739130434787" y="5.01" width="27.5" height="27.5" as="geometry" />
        </mxCell>
        <mxCell id="Acg6w6ZLD4bJByQPUH88-12" value="&lt;div&gt;&lt;span&gt;250GB SSD&lt;/span&gt;&lt;/div&gt;" style="image;aspect=fixed;html=1;points=[];align=left;fontSize=12;image=img/lib/azure2/general/SSD.svg;fontStyle=1;labelPosition=right;verticalLabelPosition=middle;verticalAlign=middle;spacingLeft=6;labelBackgroundColor=none;" vertex="1" parent="Acg6w6ZLD4bJByQPUH88-5">
          <mxGeometry x="221.82347826086962" y="45.01" width="24" height="21.81" as="geometry" />
        </mxCell>
        <mxCell id="Acg6w6ZLD4bJByQPUH88-13" value="8GB DDR4" style="sketch=0;pointerEvents=1;shadow=0;dashed=0;html=1;strokeColor=none;fillColor=#005F4B;labelPosition=right;verticalLabelPosition=middle;verticalAlign=middle;align=left;outlineConnect=0;shape=mxgraph.veeam2.ram;fontStyle=1;spacingLeft=6;" vertex="1" parent="Acg6w6ZLD4bJByQPUH88-5">
          <mxGeometry x="329.13000000000005" y="46.96000000000004" width="41.73913043478261" height="17.91" as="geometry" />
        </mxCell>
        <mxCell id="Acg6w6ZLD4bJByQPUH88-24" value="" style="group;strokeColor=#4D4D4D;strokeWidth=2;" vertex="1" connectable="0" parent="1">
          <mxGeometry x="650" y="694" width="460" height="80" as="geometry" />
        </mxCell>
        <mxCell id="Acg6w6ZLD4bJByQPUH88-25" value="" style="rounded=0;whiteSpace=wrap;html=1;strokeColor=none;" vertex="1" parent="Acg6w6ZLD4bJByQPUH88-24">
          <mxGeometry width="460" height="80" as="geometry" />
        </mxCell>
        <mxCell id="Acg6w6ZLD4bJByQPUH88-26" value="" style="group" vertex="1" connectable="0" parent="Acg6w6ZLD4bJByQPUH88-24">
          <mxGeometry x="10" y="20" width="41.74" height="40" as="geometry" />
        </mxCell>
        <mxCell id="Acg6w6ZLD4bJByQPUH88-27" value="" style="ellipse;whiteSpace=wrap;html=1;strokeColor=none;" vertex="1" parent="Acg6w6ZLD4bJByQPUH88-26">
          <mxGeometry width="41.74" height="40" as="geometry" />
        </mxCell>
        <mxCell id="Acg6w6ZLD4bJByQPUH88-28" value="" style="shape=image;imageAspect=0;aspect=fixed;verticalLabelPosition=bottom;verticalAlign=top;image=https://upload.wikimedia.org/wikipedia/commons/thumb/a/ad/HP_logo_2012.svg/640px-HP_logo_2012.svg.png;" vertex="1" parent="Acg6w6ZLD4bJByQPUH88-26">
          <mxGeometry width="40" height="40" as="geometry" />
        </mxCell>
        <mxCell id="Acg6w6ZLD4bJByQPUH88-29" value="HP ProDesk 600 G3" style="shape=image;imageAspect=0;aspect=fixed;verticalLabelPosition=top;verticalAlign=bottom;image=https://cdn.cs.1worldsync.com/d0/1b/d01bff7c-0667-4a05-bf1a-10f1d6851b6b.jpg;clipPath=inset(26.44% 2.67% 29.11% 2%);fontStyle=1;labelPosition=center;align=center;" vertex="1" parent="Acg6w6ZLD4bJByQPUH88-24">
          <mxGeometry x="60.00173913043483" y="21.000000000000114" width="148.2" height="51.82" as="geometry" />
        </mxCell>
        <mxCell id="Acg6w6ZLD4bJByQPUH88-30" value="Intel Core i5-6500T @ 4x 3.1GHz" style="sketch=0;pointerEvents=1;shadow=0;dashed=0;html=1;strokeColor=none;fillColor=#434445;aspect=fixed;labelPosition=right;verticalLabelPosition=middle;verticalAlign=middle;align=left;outlineConnect=0;shape=mxgraph.vvd.cpu;fontStyle=1;spacingLeft=6;" vertex="1" parent="Acg6w6ZLD4bJByQPUH88-24">
          <mxGeometry x="219.99739130434787" y="5.01" width="27.5" height="27.5" as="geometry" />
        </mxCell>
        <mxCell id="Acg6w6ZLD4bJByQPUH88-31" value="&lt;span&gt;500GB SSD&lt;/span&gt;" style="image;aspect=fixed;html=1;points=[];align=left;fontSize=12;image=img/lib/azure2/general/SSD.svg;fontStyle=1;labelPosition=right;verticalLabelPosition=middle;verticalAlign=middle;spacingLeft=6;labelBackgroundColor=none;" vertex="1" parent="Acg6w6ZLD4bJByQPUH88-24">
          <mxGeometry x="221.82347826086962" y="45.01" width="24" height="21.81" as="geometry" />
        </mxCell>
        <mxCell id="Acg6w6ZLD4bJByQPUH88-32" value="16GB DDR4" style="sketch=0;pointerEvents=1;shadow=0;dashed=0;html=1;strokeColor=none;fillColor=#005F4B;labelPosition=right;verticalLabelPosition=middle;verticalAlign=middle;align=left;outlineConnect=0;shape=mxgraph.veeam2.ram;fontStyle=1;spacingLeft=6;" vertex="1" parent="Acg6w6ZLD4bJByQPUH88-24">
          <mxGeometry x="329.13000000000005" y="46.96000000000004" width="41.73913043478261" height="17.91" as="geometry" />
        </mxCell>
        <mxCell id="Acg6w6ZLD4bJByQPUH88-35" value="&lt;div&gt;&lt;span style=&quot;color: rgb(0, 0, 255);&quot;&gt;&lt;br&gt;&lt;/span&gt;&lt;/div&gt;&lt;div&gt;&lt;span style=&quot;color: rgb(0, 0, 255);&quot;&gt;&lt;br&gt;&lt;/span&gt;&lt;span style=&quot;color: rgb(153, 51, 255);&quot;&gt;jmpa-server-1&lt;br&gt;&lt;/span&gt;&lt;span style=&quot;color: rgb(0, 0, 255);&quot;&gt;10.0.2.1&lt;/span&gt;&lt;/div&gt;&lt;span style=&quot;color: rgb(0, 0, 0);&quot;&gt;Proxmox VE 8.3.3&lt;/span&gt;" style="shape=image;imageAspect=0;aspect=fixed;verticalLabelPosition=middle;verticalAlign=bottom;image=https://avatars.githubusercontent.com/u/2678585?s=200&amp;v=4;labelPosition=right;align=left;fontStyle=1;fontColor=#FF3399;html=1;spacingLeft=5;" vertex="1" parent="1">
          <mxGeometry x="-114.4" y="801" width="50" height="50" as="geometry" />
        </mxCell>
        <mxCell id="Acg6w6ZLD4bJByQPUH88-36" value="&lt;div&gt;&lt;span style=&quot;color: rgb(0, 0, 255);&quot;&gt;&lt;br&gt;&lt;/span&gt;&lt;/div&gt;&lt;div&gt;&lt;span style=&quot;color: rgb(0, 0, 255);&quot;&gt;&lt;br&gt;&lt;/span&gt;&lt;span style=&quot;color: rgb(153, 51, 255);&quot;&gt;jmpa-server-1&lt;br&gt;&lt;/span&gt;&lt;span style=&quot;color: rgb(0, 0, 255);&quot;&gt;10.0.3.1&lt;/span&gt;&lt;/div&gt;&lt;span style=&quot;color: rgb(0, 0, 0);&quot;&gt;Proxmox VE 8.3.3&lt;/span&gt;" style="shape=image;imageAspect=0;aspect=fixed;verticalLabelPosition=middle;verticalAlign=bottom;image=https://avatars.githubusercontent.com/u/2678585?s=200&amp;v=4;labelPosition=right;align=left;fontStyle=1;fontColor=#FF3399;html=1;spacingLeft=5;" vertex="1" parent="1">
          <mxGeometry x="610" y="801" width="50" height="50" as="geometry" />
        </mxCell>
        <mxCell id="v-dcrOAvUfmWSFPV6nOm-14" value="&lt;div&gt;192.168.1.177&lt;/div&gt;" style="html=1;strokeWidth=1;shadow=0;dashed=0;shape=mxgraph.ios7.misc.wifi;fillColor=#007AFF;strokeColor=none;buttonText=;strokeColor2=#222222;fontColor=#0000FF;fontSize=12;verticalLabelPosition=bottom;verticalAlign=top;align=center;sketch=0;perimeterSpacing=4;container=0;fontStyle=1" parent="1" vertex="1">
          <mxGeometry x="407" y="425.01000000000005" width="35" height="36.07" as="geometry" />
        </mxCell>
        <mxCell id="Acg6w6ZLD4bJByQPUH88-41" value="" style="image;points=[];aspect=fixed;html=1;align=center;shadow=0;dashed=0;image=img/lib/allied_telesis/computer_and_terminals/Personal_Computer.svg;" vertex="1" parent="1">
          <mxGeometry x="462.5" y="392.08" width="92.96" height="125.98" as="geometry" />
        </mxCell>
        <mxCell id="Acg6w6ZLD4bJByQPUH88-48" value="" style="group" vertex="1" connectable="0" parent="1">
          <mxGeometry x="-105" y="960" width="220" height="230" as="geometry" />
        </mxCell>
        <mxCell id="v-dcrOAvUfmWSFPV6nOm-105" value="" style="rounded=0;whiteSpace=wrap;html=1;fillColor=#ffe6cc;strokeColor=#d79b00;" parent="Acg6w6ZLD4bJByQPUH88-48" vertex="1">
          <mxGeometry width="220" height="230" as="geometry" />
        </mxCell>
        <mxCell id="v-dcrOAvUfmWSFPV6nOm-106" value="&lt;div&gt;&lt;span&gt;&lt;span&gt;&lt;span style=&quot;color: rgb(153, 51, 255);&quot;&gt;VM105&lt;/span&gt;&lt;/span&gt; &lt;/span&gt;— &lt;span style=&quot;color: rgb(255, 51, 153);&quot;&gt;monitoring&lt;/span&gt;&lt;/div&gt;&lt;div&gt;&lt;span style=&quot;color: rgb(0, 0, 255);&quot;&gt;192.168.100.10&lt;/span&gt;&lt;/div&gt;&lt;div&gt;&lt;span style=&quot;color: rgb(0, 0, 0);&quot;&gt;Debian 12&lt;/span&gt;&lt;/div&gt;&lt;div&gt;&lt;span&gt;&lt;br&gt;&lt;/span&gt;&lt;/div&gt;" style="shape=image;html=1;verticalAlign=top;verticalLabelPosition=middle;labelBackgroundColor=none;imageAspect=0;aspect=fixed;image=https://cdn1.iconfinder.com/data/icons/Vista-Inspirate_1.0/128x128/apps/debian.png;labelPosition=right;align=left;spacingBottom=0;spacingTop=-3;spacingLeft=4;fontStyle=1" parent="Acg6w6ZLD4bJByQPUH88-48" vertex="1">
          <mxGeometry x="10" y="10" width="48" height="48" as="geometry" />
        </mxCell>
        <mxCell id="v-dcrOAvUfmWSFPV6nOm-110" value="Grafana" style="shape=image;imageAspect=0;aspect=fixed;verticalLabelPosition=middle;verticalAlign=middle;image=https://upload.wikimedia.org/wikipedia/commons/3/3b/Grafana_icon.svg;fontStyle=1;labelPosition=right;align=left;spacingLeft=6;" parent="Acg6w6ZLD4bJByQPUH88-48" vertex="1">
          <mxGeometry x="35" y="70" width="38.47" height="40" as="geometry" />
        </mxCell>
        <mxCell id="v-dcrOAvUfmWSFPV6nOm-114" value="Prometheus" style="shape=image;imageAspect=0;aspect=fixed;verticalLabelPosition=middle;verticalAlign=middle;image=https://upload.wikimedia.org/wikipedia/commons/thumb/3/38/Prometheus_software_logo.svg/800px-Prometheus_software_logo.svg.png;fontStyle=1;labelPosition=right;align=left;spacingLeft=6;" parent="Acg6w6ZLD4bJByQPUH88-48" vertex="1">
          <mxGeometry x="35" y="120" width="39.89" height="39.5" as="geometry" />
        </mxCell>
        <mxCell id="v-dcrOAvUfmWSFPV6nOm-133" value="InfluxDB" style="shape=image;imageAspect=0;aspect=fixed;verticalLabelPosition=middle;verticalAlign=middle;image=https://www.stackhero.io/assets/src/images/servicesLogos/influxdb.svg?a83b057d;fontStyle=1;labelPosition=right;align=left;spacingLeft=6;" parent="Acg6w6ZLD4bJByQPUH88-48" vertex="1">
          <mxGeometry x="35.39" y="170" width="39.5" height="39.5" as="geometry" />
        </mxCell>
        <mxCell id="v-dcrOAvUfmWSFPV6nOm-53" value="&lt;div&gt;&lt;span style=&quot;color: rgb(0, 0, 255);&quot;&gt;&lt;br&gt;&lt;/span&gt;&lt;/div&gt;&lt;div&gt;&lt;span style=&quot;color: rgb(0, 0, 255);&quot;&gt;&lt;br&gt;&lt;/span&gt;&lt;span style=&quot;color: rgb(153, 51, 255);&quot;&gt;jmpa-server-1&lt;br&gt;&lt;/span&gt;&lt;span style=&quot;color: rgb(0, 0, 255);&quot;&gt;10.0.1.1&lt;/span&gt;&lt;/div&gt;&lt;span style=&quot;color: rgb(0, 0, 0);&quot;&gt;Proxmox VE 8.3.3&lt;/span&gt;" style="shape=image;imageAspect=0;aspect=fixed;verticalLabelPosition=middle;verticalAlign=bottom;image=https://avatars.githubusercontent.com/u/2678585?s=200&amp;v=4;labelPosition=right;align=left;fontStyle=1;fontColor=#FF3399;html=1;spacingLeft=5;" parent="1" vertex="1">
          <mxGeometry x="-830" y="801" width="50" height="50" as="geometry" />
        </mxCell>
        <mxCell id="Acg6w6ZLD4bJByQPUH88-100" value="&amp;nbsp;" style="text;whiteSpace=wrap;html=1;" vertex="1" parent="1">
          <mxGeometry x="-530" y="890" width="40" height="40" as="geometry" />
        </mxCell>
        <mxCell id="v-dcrOAvUfmWSFPV6nOm-28" value="The Internet" style="image;aspect=fixed;perimeter=ellipsePerimeter;html=1;align=center;shadow=0;dashed=0;spacingTop=3;image=img/lib/active_directory/internet_globe.svg;labelPosition=center;verticalLabelPosition=top;verticalAlign=bottom;fontStyle=3;fontSize=35;fontFamily=Helvetica;" parent="1" vertex="1">
          <mxGeometry x="-1370.28" width="499.9989261744966" height="499.9989261744966" as="geometry" />
        </mxCell>
        <mxCell id="Acg6w6ZLD4bJByQPUH88-110" style="edgeStyle=orthogonalEdgeStyle;rounded=0;orthogonalLoop=1;jettySize=auto;html=1;entryX=0.981;entryY=0.59;entryDx=0;entryDy=0;entryPerimeter=0;" edge="1" parent="1" source="v-dcrOAvUfmWSFPV6nOm-1" target="v-dcrOAvUfmWSFPV6nOm-28">
          <mxGeometry relative="1" as="geometry">
            <mxPoint x="-146.09944268456366" y="295.05555555555543" as="targetPoint" />
          </mxGeometry>
        </mxCell>
        <mxCell id="Acg6w6ZLD4bJByQPUH88-118" value="&amp;nbsp;" style="text;whiteSpace=wrap;html=1;" vertex="1" parent="1">
          <mxGeometry x="-620" y="720" width="40" height="40" as="geometry" />
        </mxCell>
        <mxCell id="Acg6w6ZLD4bJByQPUH88-126" value="" style="group" vertex="1" connectable="0" parent="1">
          <mxGeometry x="-820" y="1038.5" width="580" height="70" as="geometry" />
        </mxCell>
        <mxCell id="Acg6w6ZLD4bJByQPUH88-121" value="" style="rounded=0;whiteSpace=wrap;html=1;fillColor=#ffe6cc;strokeColor=#d79b00;" vertex="1" parent="Acg6w6ZLD4bJByQPUH88-126">
          <mxGeometry width="580" height="70" as="geometry" />
        </mxCell>
        <mxCell id="Acg6w6ZLD4bJByQPUH88-122" value="" style="rounded=0;whiteSpace=wrap;html=1;fillColor=#fff2cc;strokeColor=#d6b656;" vertex="1" parent="Acg6w6ZLD4bJByQPUH88-126">
          <mxGeometry x="260" width="320" height="70" as="geometry" />
        </mxCell>
        <mxCell id="Acg6w6ZLD4bJByQPUH88-74" value="&lt;div&gt;&lt;span&gt;&lt;span&gt;&lt;span style=&quot;color: rgb(153, 51, 255);&quot;&gt;CX102&lt;/span&gt;&lt;/span&gt; &lt;/span&gt;— &lt;span style=&quot;color: rgb(255, 51, 153);&quot;&gt;homepage&lt;/span&gt;&lt;/div&gt;&lt;div&gt;&lt;span style=&quot;color: rgb(0, 0, 255);&quot;&gt;10.0.1.2&lt;/span&gt;&lt;/div&gt;&lt;div&gt;&lt;span style=&quot;color: rgb(0, 0, 0);&quot;&gt;Debian 12&lt;/span&gt;&lt;/div&gt;&lt;div&gt;&lt;span&gt;&lt;br&gt;&lt;/span&gt;&lt;/div&gt;" style="shape=image;html=1;verticalAlign=top;verticalLabelPosition=middle;labelBackgroundColor=none;imageAspect=0;aspect=fixed;image=https://cdn1.iconfinder.com/data/icons/Vista-Inspirate_1.0/128x128/apps/debian.png;labelPosition=right;align=left;spacingBottom=0;spacingTop=-3;spacingLeft=4;fontStyle=1" vertex="1" parent="Acg6w6ZLD4bJByQPUH88-126">
          <mxGeometry x="10" y="11" width="48" height="48" as="geometry" />
        </mxCell>
        <mxCell id="Acg6w6ZLD4bJByQPUH88-75" value="Homepage" style="shape=image;imageAspect=0;aspect=fixed;verticalLabelPosition=middle;verticalAlign=middle;image=https://github.com/gethomepage/homepage/raw/dev/images/banner_light@2x.png;align=left;labelPosition=right;spacingLeft=7;fontStyle=1;spacingBottom=2;clipPath=inset(22% 81.33% 28.67% 6.33%);" vertex="1" parent="Acg6w6ZLD4bJByQPUH88-126">
          <mxGeometry x="273.49" y="18.5" width="33.02" height="33" as="geometry" />
        </mxCell>
        <mxCell id="Acg6w6ZLD4bJByQPUH88-127" value="" style="group" vertex="1" connectable="0" parent="1">
          <mxGeometry x="-820" y="1120" width="580" height="70" as="geometry" />
        </mxCell>
        <mxCell id="Acg6w6ZLD4bJByQPUH88-123" value="" style="rounded=0;whiteSpace=wrap;html=1;fillColor=#ffe6cc;strokeColor=#d79b00;" vertex="1" parent="Acg6w6ZLD4bJByQPUH88-127">
          <mxGeometry width="580" height="70" as="geometry" />
        </mxCell>
        <mxCell id="Acg6w6ZLD4bJByQPUH88-124" value="" style="rounded=0;whiteSpace=wrap;html=1;fillColor=#fff2cc;strokeColor=#d6b656;" vertex="1" parent="Acg6w6ZLD4bJByQPUH88-127">
          <mxGeometry x="260" width="320" height="70" as="geometry" />
        </mxCell>
        <mxCell id="Acg6w6ZLD4bJByQPUH88-87" value="MySpeed" style="shape=image;imageAspect=0;aspect=fixed;verticalLabelPosition=middle;verticalAlign=middle;image=https://camo.githubusercontent.com/4ccc83cf6b1f06e999c378bda264433ec83994031c156a5c88876b53eb57b201/68747470733a2f2f692e696d6775722e636f6d2f61436d413672482e706e67;fontStyle=1;align=left;labelPosition=right;spacingLeft=7;" vertex="1" parent="Acg6w6ZLD4bJByQPUH88-127">
          <mxGeometry x="273.502214207425" y="18.5" width="33" height="33" as="geometry" />
        </mxCell>
        <mxCell id="Acg6w6ZLD4bJByQPUH88-92" value="&lt;div&gt;&lt;span&gt;&lt;span&gt;&lt;span style=&quot;color: rgb(153, 51, 255);&quot;&gt;CX130&lt;/span&gt;&lt;/span&gt; &lt;/span&gt;— &lt;span style=&quot;color: rgb(255, 51, 153);&quot;&gt;myspeed&lt;/span&gt;&lt;/div&gt;&lt;div&gt;&lt;span style=&quot;color: rgb(0, 0, 255);&quot;&gt;10.0.1.30&lt;/span&gt;&lt;/div&gt;&lt;div&gt;&lt;span style=&quot;color: rgb(0, 0, 0);&quot;&gt;Debian 12&lt;/span&gt;&lt;/div&gt;&lt;div&gt;&lt;span&gt;&lt;br&gt;&lt;/span&gt;&lt;/div&gt;" style="shape=image;html=1;verticalAlign=top;verticalLabelPosition=middle;labelBackgroundColor=none;imageAspect=0;aspect=fixed;image=https://cdn1.iconfinder.com/data/icons/Vista-Inspirate_1.0/128x128/apps/debian.png;labelPosition=right;align=left;spacingBottom=0;spacingTop=-3;spacingLeft=4;fontStyle=1" vertex="1" parent="Acg6w6ZLD4bJByQPUH88-127">
          <mxGeometry x="10" y="10" width="48" height="48" as="geometry" />
        </mxCell>
        <mxCell id="Acg6w6ZLD4bJByQPUH88-128" value="" style="group" vertex="1" connectable="0" parent="1">
          <mxGeometry x="-820" y="959" width="580" height="70" as="geometry" />
        </mxCell>
        <mxCell id="Acg6w6ZLD4bJByQPUH88-112" value="" style="rounded=0;whiteSpace=wrap;html=1;fillColor=#ffe6cc;strokeColor=#d79b00;" vertex="1" parent="Acg6w6ZLD4bJByQPUH88-128">
          <mxGeometry width="580" height="70" as="geometry" />
        </mxCell>
        <mxCell id="Acg6w6ZLD4bJByQPUH88-81" value="&lt;div&gt;&lt;span&gt;&lt;span&gt;&lt;span style=&quot;color: rgb(153, 51, 255);&quot;&gt;CX104&lt;/span&gt;&lt;/span&gt; &lt;/span&gt;— &lt;span style=&quot;color: rgb(255, 51, 153);&quot;&gt;nginx-reverse-proxy&lt;/span&gt;&lt;/div&gt;&lt;div&gt;&lt;span style=&quot;color: rgb(0, 0, 255);&quot;&gt;10.0.1.4&lt;/span&gt;&lt;/div&gt;&lt;div&gt;&lt;span style=&quot;color: rgb(0, 0, 0);&quot;&gt;Debian 12&lt;/span&gt;&lt;/div&gt;&lt;div&gt;&lt;span&gt;&lt;br&gt;&lt;/span&gt;&lt;/div&gt;" style="shape=image;html=1;verticalAlign=top;verticalLabelPosition=middle;labelBackgroundColor=none;imageAspect=0;aspect=fixed;image=https://cdn1.iconfinder.com/data/icons/Vista-Inspirate_1.0/128x128/apps/debian.png;labelPosition=right;align=left;spacingBottom=0;spacingTop=-3;spacingLeft=4;fontStyle=1" vertex="1" parent="Acg6w6ZLD4bJByQPUH88-128">
          <mxGeometry x="10" y="11" width="48" height="48" as="geometry" />
        </mxCell>
        <mxCell id="Acg6w6ZLD4bJByQPUH88-115" value="" style="rounded=0;whiteSpace=wrap;html=1;fillColor=#fff2cc;strokeColor=#d6b656;" vertex="1" parent="Acg6w6ZLD4bJByQPUH88-128">
          <mxGeometry x="260" width="320" height="70" as="geometry" />
        </mxCell>
        <mxCell id="Acg6w6ZLD4bJByQPUH88-117" value="" style="group" vertex="1" connectable="0" parent="Acg6w6ZLD4bJByQPUH88-128">
          <mxGeometry x="275.002214207425" y="16" width="30.737785792574982" height="35" as="geometry" />
        </mxCell>
        <mxCell id="Acg6w6ZLD4bJByQPUH88-83" value="" style="whiteSpace=wrap;html=1;aspect=fixed;fillColor=default;strokeColor=none;rotation=-30;" vertex="1" parent="Acg6w6ZLD4bJByQPUH88-117">
          <mxGeometry x="4.117785792574978" y="6.25" width="22.5" height="22.5" as="geometry" />
        </mxCell>
        <mxCell id="Acg6w6ZLD4bJByQPUH88-76" value="Nginx (reverse-proxy)" style="shape=image;imageAspect=0;aspect=fixed;verticalLabelPosition=middle;verticalAlign=middle;image=https://static-00.iconduck.com/assets.00/nginx-icon-223x256-ghqr4o29.png;fontStyle=1;labelPosition=right;align=left;spacingLeft=9;" vertex="1" parent="Acg6w6ZLD4bJByQPUH88-117">
          <mxGeometry x="0.24778579257497313" width="30.49" height="35" as="geometry" />
        </mxCell>
        <mxCell id="Acg6w6ZLD4bJByQPUH88-129" value="" style="group" vertex="1" connectable="0" parent="1">
          <mxGeometry x="-820" y="880" width="580" height="70" as="geometry" />
        </mxCell>
        <mxCell id="v-dcrOAvUfmWSFPV6nOm-88" value="" style="rounded=0;whiteSpace=wrap;html=1;fillColor=#ffe6cc;strokeColor=#d79b00;" parent="Acg6w6ZLD4bJByQPUH88-129" vertex="1">
          <mxGeometry width="580" height="70" as="geometry" />
        </mxCell>
        <mxCell id="Acg6w6ZLD4bJByQPUH88-114" value="" style="rounded=0;whiteSpace=wrap;html=1;fillColor=#fff2cc;strokeColor=#d6b656;" vertex="1" parent="Acg6w6ZLD4bJByQPUH88-129">
          <mxGeometry x="260" width="320" height="70" as="geometry" />
        </mxCell>
        <mxCell id="v-dcrOAvUfmWSFPV6nOm-91" value="&lt;div&gt;&lt;span&gt;&lt;span&gt;&lt;span style=&quot;color: rgb(153, 51, 255);&quot;&gt;CX115&lt;/span&gt;&lt;/span&gt; &lt;/span&gt;— &lt;span style=&quot;color: rgb(255, 51, 153);&quot;&gt;tailscale&lt;/span&gt;&lt;/div&gt;&lt;div&gt;&lt;span style=&quot;color: rgb(0, 0, 255);&quot;&gt;10.0.1.15&lt;/span&gt;&lt;/div&gt;&lt;div&gt;&lt;span style=&quot;color: rgb(0, 0, 0);&quot;&gt;Debian 12&lt;/span&gt;&lt;/div&gt;&lt;div&gt;&lt;span&gt;&lt;br&gt;&lt;/span&gt;&lt;/div&gt;" style="shape=image;html=1;verticalAlign=top;verticalLabelPosition=middle;labelBackgroundColor=none;imageAspect=0;aspect=fixed;image=https://cdn1.iconfinder.com/data/icons/Vista-Inspirate_1.0/128x128/apps/debian.png;labelPosition=right;align=left;spacingBottom=0;spacingTop=-3;spacingLeft=4;fontStyle=1" parent="Acg6w6ZLD4bJByQPUH88-129" vertex="1">
          <mxGeometry x="10" y="10" width="48" height="48" as="geometry" />
        </mxCell>
        <mxCell id="v-dcrOAvUfmWSFPV6nOm-92" value="Tailscale" style="shape=image;imageAspect=0;aspect=fixed;verticalLabelPosition=middle;verticalAlign=middle;image=https://tailscale.gallerycdn.vsassets.io/extensions/tailscale/vscode-tailscale/1.0.0/1698786256133/Microsoft.VisualStudio.Services.Icons.Default;align=left;labelPosition=right;spacingLeft=6;fontStyle=1;spacingBottom=2;" parent="Acg6w6ZLD4bJByQPUH88-129" vertex="1">
          <mxGeometry x="272" y="17" width="36" height="36" as="geometry" />
        </mxCell>
        <mxCell id="Acg6w6ZLD4bJByQPUH88-140" value="" style="group" vertex="1" connectable="0" parent="1">
          <mxGeometry x="-105" y="880" width="580" height="70" as="geometry" />
        </mxCell>
        <mxCell id="Acg6w6ZLD4bJByQPUH88-141" value="" style="rounded=0;whiteSpace=wrap;html=1;fillColor=#ffe6cc;strokeColor=#d79b00;" vertex="1" parent="Acg6w6ZLD4bJByQPUH88-140">
          <mxGeometry width="580" height="70" as="geometry" />
        </mxCell>
        <mxCell id="Acg6w6ZLD4bJByQPUH88-142" value="" style="rounded=0;whiteSpace=wrap;html=1;fillColor=#fff2cc;strokeColor=#d6b656;" vertex="1" parent="Acg6w6ZLD4bJByQPUH88-140">
          <mxGeometry x="260" width="320" height="70" as="geometry" />
        </mxCell>
        <mxCell id="Acg6w6ZLD4bJByQPUH88-143" value="&lt;div&gt;&lt;span&gt;&lt;span&gt;&lt;span style=&quot;color: rgb(153, 51, 255);&quot;&gt;CX215&lt;/span&gt;&lt;/span&gt; &lt;/span&gt;— &lt;span style=&quot;color: rgb(255, 51, 153);&quot;&gt;tailscale&lt;/span&gt;&lt;/div&gt;&lt;div&gt;&lt;span style=&quot;color: rgb(0, 0, 255);&quot;&gt;10.0.2.15&lt;/span&gt;&lt;/div&gt;&lt;div&gt;&lt;span style=&quot;color: rgb(0, 0, 0);&quot;&gt;Debian 12&lt;/span&gt;&lt;/div&gt;&lt;div&gt;&lt;span&gt;&lt;br&gt;&lt;/span&gt;&lt;/div&gt;" style="shape=image;html=1;verticalAlign=top;verticalLabelPosition=middle;labelBackgroundColor=none;imageAspect=0;aspect=fixed;image=https://cdn1.iconfinder.com/data/icons/Vista-Inspirate_1.0/128x128/apps/debian.png;labelPosition=right;align=left;spacingBottom=0;spacingTop=-3;spacingLeft=4;fontStyle=1" vertex="1" parent="Acg6w6ZLD4bJByQPUH88-140">
          <mxGeometry x="10" y="10" width="48" height="48" as="geometry" />
        </mxCell>
        <mxCell id="Acg6w6ZLD4bJByQPUH88-144" value="Tailscale" style="shape=image;imageAspect=0;aspect=fixed;verticalLabelPosition=middle;verticalAlign=middle;image=https://tailscale.gallerycdn.vsassets.io/extensions/tailscale/vscode-tailscale/1.0.0/1698786256133/Microsoft.VisualStudio.Services.Icons.Default;align=left;labelPosition=right;spacingLeft=6;fontStyle=1;spacingBottom=2;" vertex="1" parent="Acg6w6ZLD4bJByQPUH88-140">
          <mxGeometry x="272" y="17" width="36" height="36" as="geometry" />
        </mxCell>
        <mxCell id="Acg6w6ZLD4bJByQPUH88-145" value="" style="group" vertex="1" connectable="0" parent="1">
          <mxGeometry x="620" y="880" width="580" height="70" as="geometry" />
        </mxCell>
        <mxCell id="Acg6w6ZLD4bJByQPUH88-146" value="" style="rounded=0;whiteSpace=wrap;html=1;fillColor=#ffe6cc;strokeColor=#d79b00;" vertex="1" parent="Acg6w6ZLD4bJByQPUH88-145">
          <mxGeometry width="580" height="70" as="geometry" />
        </mxCell>
        <mxCell id="Acg6w6ZLD4bJByQPUH88-147" value="" style="rounded=0;whiteSpace=wrap;html=1;fillColor=#fff2cc;strokeColor=#d6b656;" vertex="1" parent="Acg6w6ZLD4bJByQPUH88-145">
          <mxGeometry x="260" width="320" height="70" as="geometry" />
        </mxCell>
        <mxCell id="Acg6w6ZLD4bJByQPUH88-148" value="&lt;div&gt;&lt;span&gt;&lt;span&gt;&lt;span style=&quot;color: rgb(153, 51, 255);&quot;&gt;CX315&lt;/span&gt;&lt;/span&gt; &lt;/span&gt;— &lt;span style=&quot;color: rgb(255, 51, 153);&quot;&gt;tailscale&lt;/span&gt;&lt;/div&gt;&lt;div&gt;&lt;span style=&quot;color: rgb(0, 0, 255);&quot;&gt;10.0.3.15&lt;/span&gt;&lt;/div&gt;&lt;div&gt;&lt;span style=&quot;color: rgb(0, 0, 0);&quot;&gt;Debian 12&lt;/span&gt;&lt;/div&gt;&lt;div&gt;&lt;span&gt;&lt;br&gt;&lt;/span&gt;&lt;/div&gt;" style="shape=image;html=1;verticalAlign=top;verticalLabelPosition=middle;labelBackgroundColor=none;imageAspect=0;aspect=fixed;image=https://cdn1.iconfinder.com/data/icons/Vista-Inspirate_1.0/128x128/apps/debian.png;labelPosition=right;align=left;spacingBottom=0;spacingTop=-3;spacingLeft=4;fontStyle=1" vertex="1" parent="Acg6w6ZLD4bJByQPUH88-145">
          <mxGeometry x="10" y="10" width="48" height="48" as="geometry" />
        </mxCell>
        <mxCell id="Acg6w6ZLD4bJByQPUH88-149" value="Tailscale" style="shape=image;imageAspect=0;aspect=fixed;verticalLabelPosition=middle;verticalAlign=middle;image=https://tailscale.gallerycdn.vsassets.io/extensions/tailscale/vscode-tailscale/1.0.0/1698786256133/Microsoft.VisualStudio.Services.Icons.Default;align=left;labelPosition=right;spacingLeft=6;fontStyle=1;spacingBottom=2;" vertex="1" parent="Acg6w6ZLD4bJByQPUH88-145">
          <mxGeometry x="272" y="17" width="36" height="36" as="geometry" />
        </mxCell>
        <mxCell id="Acg6w6ZLD4bJByQPUH88-154" style="edgeStyle=orthogonalEdgeStyle;rounded=0;orthogonalLoop=1;jettySize=auto;html=1;entryX=0.75;entryY=1;entryDx=0;entryDy=0;exitX=0;exitY=0.5;exitDx=0;exitDy=0;" edge="1" parent="1" source="Acg6w6ZLD4bJByQPUH88-141" target="Acg6w6ZLD4bJByQPUH88-108">
          <mxGeometry relative="1" as="geometry">
            <Array as="points">
              <mxPoint x="-170" y="914" />
              <mxPoint x="-170" y="1330" />
              <mxPoint x="-1062" y="1330" />
            </Array>
          </mxGeometry>
        </mxCell>
        <mxCell id="Acg6w6ZLD4bJByQPUH88-156" value="VS Code Server" style="shape=image;imageAspect=0;aspect=fixed;verticalLabelPosition=middle;verticalAlign=middle;image=https://upload.wikimedia.org/wikipedia/commons/thumb/9/9a/Visual_Studio_Code_1.35_icon.svg/2048px-Visual_Studio_Code_1.35_icon.svg.png;labelPosition=right;align=left;fontStyle=1" vertex="1" parent="1">
          <mxGeometry x="140" y="975.75" width="48.5" height="48.5" as="geometry" />
        </mxCell>
        <mxCell id="Acg6w6ZLD4bJByQPUH88-159" style="edgeStyle=orthogonalEdgeStyle;rounded=0;orthogonalLoop=1;jettySize=auto;html=1;entryX=1.001;entryY=0.417;entryDx=0;entryDy=0;entryPerimeter=0;" edge="1" parent="1" source="v-dcrOAvUfmWSFPV6nOm-88" target="Acg6w6ZLD4bJByQPUH88-108">
          <mxGeometry relative="1" as="geometry" />
        </mxCell>
        <mxCell id="Acg6w6ZLD4bJByQPUH88-161" style="edgeStyle=orthogonalEdgeStyle;rounded=0;orthogonalLoop=1;jettySize=auto;html=1;entryX=0.676;entryY=0.155;entryDx=0;entryDy=0;entryPerimeter=0;" edge="1" parent="1" source="Acg6w6ZLD4bJByQPUH88-112" target="Acg6w6ZLD4bJByQPUH88-157">
          <mxGeometry relative="1" as="geometry" />
        </mxCell>
        <mxCell id="Acg6w6ZLD4bJByQPUH88-162" style="edgeStyle=orthogonalEdgeStyle;rounded=0;orthogonalLoop=1;jettySize=auto;html=1;entryX=0.25;entryY=1;entryDx=0;entryDy=0;exitX=0;exitY=0.5;exitDx=0;exitDy=0;" edge="1" parent="1" source="Acg6w6ZLD4bJByQPUH88-146" target="Acg6w6ZLD4bJByQPUH88-108">
          <mxGeometry relative="1" as="geometry">
            <Array as="points">
              <mxPoint x="540" y="914" />
              <mxPoint x="540" y="1400" />
              <mxPoint x="-1167" y="1400" />
            </Array>
          </mxGeometry>
        </mxCell>
        <mxCell id="Acg6w6ZLD4bJByQPUH88-108" value="" style="rounded=1;whiteSpace=wrap;html=1;gradientColor=none;fillColor=light-dark(#231c1c, #ededed);" vertex="1" parent="1">
          <mxGeometry x="-1220" y="710" width="210" height="490" as="geometry" />
        </mxCell>
        <mxCell id="Acg6w6ZLD4bJByQPUH88-64" value="" style="shape=image;imageAspect=0;aspect=fixed;verticalLabelPosition=bottom;verticalAlign=top;image=https://external-preview.redd.it/Ssi9-rid5q7xGFCN14pVfBNoJ21mwxgsCRQLdmGD3dA.jpg?auto=webp&amp;s=a0b8114216605dd0b3a3bbf4f848eefbd0cad8b2;clipPath=inset(37.9% 26.33% 35.99% 26%);fillColor=light-dark(#231c1c, #ededed);" vertex="1" parent="1">
          <mxGeometry x="-1218.04" y="741.9200000000001" width="206.08" height="59.08" as="geometry" />
        </mxCell>
        <mxCell id="Acg6w6ZLD4bJByQPUH88-164" value="" style="group" vertex="1" connectable="0" parent="1">
          <mxGeometry x="-1220" y="530" width="210" height="75" as="geometry" />
        </mxCell>
        <mxCell id="v-dcrOAvUfmWSFPV6nOm-34" value="" style="rounded=1;whiteSpace=wrap;html=1;gradientColor=none;" parent="Acg6w6ZLD4bJByQPUH88-164" vertex="1">
          <mxGeometry width="210" height="75" as="geometry" />
        </mxCell>
        <mxCell id="v-dcrOAvUfmWSFPV6nOm-32" value="" style="shape=image;imageAspect=0;aspect=fixed;verticalLabelPosition=bottom;verticalAlign=top;image=https://upload.wikimedia.org/wikipedia/commons/thumb/4/4b/Cloudflare_Logo.svg/640px-Cloudflare_Logo.svg.png;" parent="Acg6w6ZLD4bJByQPUH88-164" vertex="1">
          <mxGeometry x="41.51" y="16.5" width="126.98" height="42" as="geometry" />
        </mxCell>
        <mxCell id="Acg6w6ZLD4bJByQPUH88-165" value="" style="rounded=0;whiteSpace=wrap;html=1;" vertex="1" parent="1">
          <mxGeometry x="-1100" y="890" width="120" height="60" as="geometry" />
        </mxCell>
      </root>
    </mxGraphModel>
  </diagram>
</mxfile>
